Coordinates
version=1
nRows=12
nColumns=46
inDegrees=yes

Units are S.I. units (second, meters, Newtons, ...)
Angles are in degrees.

endheader
time	pelvis_tilt	pelvis_list	pelvis_rotation	pelvis_tx	pelvis_ty	pelvis_tz	bb_angle	bb_tx	bb_ty	bb_tz	hip_flexion_r	hip_adduction_r	hip_rotation_r	knee_angle_r	knee_angle_r_beta	ankle_angle_r	subtalar_angle_r	mtp_angle_r	crank_angle_r	hip_flexion_l	hip_adduction_l	hip_rotation_l	knee_angle_l	knee_angle_l_beta	ankle_angle_l	subtalar_angle_l	mtp_angle_l	crank_angle_l	lumbar_extension	lumbar_bending	lumbar_rotation	arm_flex_r	arm_add_r	arm_rot_r	elbow_flex_r	pro_sup_r	wrist_flex_r	wrist_dev_r	arm_flex_l	arm_add_l	arm_rot_l	elbow_flex_l	pro_sup_l	wrist_flex_l	wrist_dev_l
      0.00000000	     -9.90501437	     -4.20495188	     -2.64008165	      0.18044835	      1.04773918	     -0.31675871	      0.00000000	      0.50000000	      0.00000000	      0.25000000	     85.15978376	     -0.65918940	      2.26494632	    104.16599331	      1.81803955	     21.53706638	     -3.45800153	      0.00000000	      0.00000000	     41.55552957	    -11.32993029	     -0.99597987	     58.28305322	      1.01723118	    -11.43039613	     -9.53557825	      0.00000000	      0.00000000	    -55.88417014	     -0.66822442	      6.46766806	     89.61578987	     -2.34675709	     27.52657420	     19.21058586	     21.14086383	      0.00000000	      0.00000000	     89.16949144	      1.12813787	     27.83555251	     19.90253027	     24.80526888	      0.00000000	      0.00000000
      0.00500000	     -9.91115052	     -4.20871433	     -2.64732271	      0.18044596	      1.04776695	     -0.31674014	      0.00000000	      0.50000000	      0.00000000	      0.25000000	     85.16006292	     -0.64493662	      2.26434889	    104.16036501	      1.81794132	     21.53842475	     -3.46989748	      0.00000000	      0.00000000	     41.56083121	    -11.33767940	     -0.99818064	     58.27485569	      1.01708810	    -11.45028506	     -9.54798609	      0.00000000	      0.00000000	    -55.86969367	     -0.66754586	      6.44647512	     89.61573536	     -2.37722056	     28.04719282	     18.97785959	     21.89163815	      0.00000000	      0.00000000	     89.18053044	      1.05856358	     28.06780153	     19.45480292	     26.74417854	      0.00000000	      0.00000000
      0.01000000	     -9.65686549	     -4.25471549	     -2.71069070	      0.18042630	      1.04836926	     -0.31669336	      0.00000000	      0.50000000	      0.00000000	      0.25000000	     84.82794821	     -0.55573334	      2.23370571	    104.09704094	      1.81683611	     21.64933792	     -3.41728616	      0.00000000	      0.00000000	     41.23328850	    -11.42340982	     -1.11348580	     58.17016810	      1.01526096	    -11.76859895	     -9.99045413	      0.00000000	      0.00000000	    -56.31862300	     -0.71143549	      6.65810252	     89.60401680	     -2.61829933	     26.47680331	     20.12584366	     22.93688571	      0.00000000	      0.00000000	     89.10770928	      0.98465378	     26.92889997	     21.00671352	     27.52106979	      0.00000000	      0.00000000
      0.01500000	    -10.05866723	     -4.11643354	     -2.84135736	      0.18051812	      1.04750733	     -0.31673571	      0.00000000	      0.50000000	      0.00000000	      0.25000000	     85.27977487	     -0.50058108	      2.39449200	    104.17791410	      1.81824761	     21.76744113	     -3.27709717	      0.00000000	      0.00000000	     41.67774117	    -11.36703030	     -1.19985827	     58.29716077	      1.01747740	    -11.50106444	     -9.62759306	      0.00000000	      0.00000000	    -55.72122809	     -0.84170347	      6.52370087	     89.61142804	     -2.09698772	     25.56723370	     19.04315603	     23.26173862	      0.00000000	      0.00000000	     89.15958764	      1.33612494	     26.27807191	     19.38343045	     27.75199187	      0.00000000	      0.00000000
      0.02000000	    -10.03981534	     -4.13327273	     -2.87505264	      0.18045534	      1.04784603	     -0.31650892	      0.00000000	      0.50000000	      0.00000000	      0.25000000	     85.28533593	     -0.50891673	      2.33264358	    104.15878237	      1.81791370	     21.64334073	     -3.38928849	      0.00000000	      0.00000000	     41.62454057	    -11.40467510	     -1.20009830	     58.22391224	      1.01619897	    -11.58738212	     -9.59192748	      0.00000000	      0.00000000	    -55.76158384	     -0.82012787	      6.54946795	     89.60918245	     -2.03413599	     24.96358434	     19.07247822	     23.72554488	      0.00000000	      0.00000000	     89.15946828	      1.43121167	     25.77960792	     19.24475351	     28.20067247	      0.00000000	      0.00000000
      0.02500000	    -10.04994732	     -4.21103972	     -2.86304234	      0.18041267	      1.04780685	     -0.31643728	      0.00000000	      0.50000000	      0.00000000	      0.25000000	     85.30110473	     -0.50382558	      2.24207512	    104.17548099	      1.81820514	     21.57150138	     -3.46837454	      0.00000000	      0.00000000	     41.68134535	    -11.48459950	     -1.13931261	     58.27457124	      1.01708314	    -11.56878777	     -9.49705851	      0.00000000	      0.00000000	    -55.73373432	     -0.75869069	      6.62498259	     89.60915322	     -2.04630924	     24.82141616	     19.04637270	     23.86231510	      0.00000000	      0.00000000	     89.16947839	      1.50718290	     25.59902185	     19.01628518	     28.46925114	      0.00000000	      0.00000000
      0.03000000	    -10.02772937	     -4.12111966	     -2.88055214	      0.18044162	      1.04789789	     -0.31642140	      0.00000000	      0.50000000	      0.00000000	      0.25000000	     85.28826534	     -0.52416282	      2.33767802	    104.18951523	      1.81845009	     21.63671722	     -3.36714995	      0.00000000	      0.00000000	     41.61073789	    -11.40101654	     -1.20332109	     58.20717643	      1.01590688	    -11.65856922	     -9.60946861	      0.00000000	      0.00000000	    -55.77372641	     -0.82829941	      6.56318932	     89.60803569	     -1.99887824	     24.24686676	     19.12679971	     24.37906071	      0.00000000	      0.00000000	     89.15151529	      1.50612662	     25.15040891	     19.20606670	     28.97784912	      0.00000000	      0.00000000
      0.03500000	    -10.06435001	     -4.16747140	     -2.88442348	      0.18043161	      1.04782972	     -0.31638142	      0.00000000	      0.50000000	      0.00000000	      0.25000000	     85.32632458	     -0.50996396	      2.27924932	    104.18632161	      1.81839435	     21.60193159	     -3.41531281	      0.00000000	      0.00000000	     41.68096398	    -11.45499318	     -1.16814405	     58.25132738	      1.01667746	    -11.62805976	     -9.53236224	      0.00000000	      0.00000000	    -55.72718221	     -0.79392708	      6.56171248	     89.60704609	     -1.86460209	     23.53746766	     18.95097459	     25.21374531	      0.00000000	      0.00000000	     89.16221639	      1.55720822	     24.55333058	     18.91917114	     29.74895030	      0.00000000	      0.00000000
      0.04000000	    -10.06571932	     -4.14026379	     -2.89304768	      0.18045401	      1.04788960	     -0.31636867	      0.00000000	      0.50000000	      0.00000000	      0.25000000	     85.32604591	     -0.50495416	      2.32230336	    104.18777702	      1.81841975	     21.60430787	     -3.35692526	      0.00000000	      0.00000000	     41.65256007	    -11.42723074	     -1.18161391	     58.20614980	      1.01588896	    -11.64518486	     -9.57755928	      0.00000000	      0.00000000	    -55.73843041	     -0.82421071	      6.56037794	     89.60632661	     -1.79683282	     22.96952982	     18.95025583	     25.75959796	      0.00000000	      0.00000000	     89.16795252	      1.63188242	     24.13645737	     18.89435886	     30.23926131	      0.00000000	      0.00000000
      0.04500000	    -10.09103240	     -4.17979457	     -2.94049081	      0.18044338	      1.04784451	     -0.31627830	      0.00000000	      0.50000000	      0.00000000	      0.25000000	     85.34654661	     -0.44321974	      2.27645840	    104.17247864	      1.81815274	     21.62288241	     -3.39475349	      0.00000000	      0.00000000	     41.68675749	    -11.50740808	     -1.20146472	     58.22680567	      1.01624947	    -11.61703031	     -9.54710476	      0.00000000	      0.00000000	    -55.72381039	     -0.78436285	      6.51908747	     89.60412422	     -1.26347157	     20.08971335	     19.33650259	     26.19054619	      0.00000000	      0.00000000	     89.14127411	      1.69750647	     22.37066850	     19.14044872	     29.95559737	      0.00000000	      0.00000000
      0.05000000	    -10.04908104	     -4.17550099	     -2.90729278	      0.18041297	      1.04781716	     -0.31632125	      0.00000000	      0.50000000	      0.00000000	      0.25000000	     85.32013929	     -0.48599713	      2.26967075	    104.19472952	      1.81854109	     21.59333371	     -3.43105487	      0.00000000	      0.00000000	     41.66368376	    -11.47955397	     -1.17137142	     58.26314106	      1.01688364	    -11.57530094	     -9.52170153	      0.00000000	      0.00000000	    -55.70780763	     -0.83256058	      6.61162518	     89.61348764	     -2.51763825	     28.65993476	     18.71332543	     22.04827713	      0.00000000	      0.00000000	     89.17069884	      1.14179356	     28.16517103	     19.03202994	     27.69599071	      0.00000000	      0.00000000
      0.05500000	    -10.03701869	     -4.13219165	     -2.90485300	      0.18042617	      1.04787369	     -0.31633428	      0.00000000	      0.50000000	      0.00000000	      0.25000000	     85.31043579	     -0.50217184	      2.32577885	    104.20071399	      1.81864554	     21.62152637	     -3.33797812	      0.00000000	      0.00000000	     41.62377907	    -11.42874496	     -1.19741673	     58.21527743	      1.01604827	    -11.63312964	     -9.57075618	      0.00000000	      0.00000000	    -55.73245817	     -0.84282363	      6.53067540	     89.61271944	     -2.26065475	     27.12825543	     18.75958218	     23.03917027	      0.00000000	      0.00000000	     89.15977354	      1.17974043	     27.13375854	     19.09267444	     28.35911514	      0.00000000	      0.00000000
